<svg width="16" height="21" viewBox="0 0 16 21" fill="none" xmlns="http://www.w3.org/2000/svg">
<path opacity="0.6" fill-rule="evenodd" clip-rule="evenodd" d="M8 1.83057C6.35629 1.83057 4.77576 2.518 3.60725 3.74856C2.43807 4.97981 1.77778 6.65403 1.77778 8.40396C1.77778 10.956 3.35562 13.4394 5.09655 15.3747C5.95002 16.3234 6.80637 17.1002 7.4502 17.6402C7.65909 17.8153 7.84486 17.9649 8 18.0867C8.15514 17.9649 8.34091 17.8153 8.5498 17.6402C9.19363 17.1002 10.05 16.3234 10.9035 15.3747C12.6444 13.4394 14.2222 10.956 14.2222 8.40396C14.2222 6.65403 13.5619 4.97981 12.3928 3.74856C11.2242 2.518 9.64371 1.83057 8 1.83057ZM8 19.2209C7.49926 19.9772 7.49903 19.977 7.49879 19.9768L7.49639 19.9752L7.49095 19.9713L7.47248 19.9582C7.45685 19.947 7.43466 19.931 7.40635 19.9103C7.34972 19.869 7.26854 19.809 7.16633 19.7313C6.96198 19.5758 6.67301 19.3492 6.32758 19.0596C5.63808 18.4814 4.71664 17.6461 3.79234 16.6186C1.97772 14.6015 0 11.6764 0 8.40396C0 6.18165 0.838113 4.04632 2.33612 2.46877C3.8348 0.890529 5.87174 0 8 0C10.1283 0 12.1652 0.89053 13.6639 2.46877C15.1619 4.04632 16 6.18164 16 8.40396C16 11.6764 14.0223 14.6015 12.2077 16.6186C11.2834 17.6461 10.3619 18.4814 9.67242 19.0596C9.32699 19.3492 9.03802 19.5758 8.83367 19.7313C8.73146 19.809 8.65028 19.869 8.59365 19.9103C8.56534 19.931 8.54315 19.947 8.52752 19.9582L8.50905 19.9713L8.50361 19.9752L8.50185 19.9764C8.5016 19.9766 8.50074 19.9772 8 19.2209ZM8 19.2209L8.50074 19.9772C8.19868 20.1892 7.80085 20.1889 7.49879 19.9768L8 19.2209ZM8 6.82302C7.20053 6.82302 6.51852 7.51133 6.51852 8.40396C6.51852 9.29659 7.20053 9.9849 8 9.9849C8.79947 9.9849 9.48148 9.29659 9.48148 8.40396C9.48148 7.51133 8.79947 6.82302 8 6.82302ZM4.74074 8.40396C4.74074 6.53934 6.18124 4.99245 8 4.99245C9.81877 4.99245 11.2593 6.53934 11.2593 8.40396C11.2593 10.2686 9.81877 11.8155 8 11.8155C6.18124 11.8155 4.74074 10.2686 4.74074 8.40396Z" fill="white"/>
</svg>
