<svg width="24" height="24" viewBox="0 0 24 24" fill="none" xmlns="http://www.w3.org/2000/svg">
<path d="M22.7006 19.9067L17.9409 15.1147C18.9244 13.6224 19.5 11.8356 19.5 9.91485C19.5 4.71031 15.2944 0.476074 10.125 0.476074C4.95563 0.476074 0.75 4.71031 0.75 9.91485C0.75 15.1194 4.95563 19.3536 10.125 19.3536C12.0328 19.3536 13.8075 18.7741 15.2897 17.784L20.0494 22.576C20.7806 23.3132 21.9694 23.3132 22.7006 22.576C23.4328 21.8389 23.4328 20.6439 22.7006 19.9067ZM3.5625 9.91485C3.5625 6.27149 6.50625 3.30771 10.125 3.30771C13.7437 3.30771 16.6875 6.27149 16.6875 9.91485C16.6875 13.5582 13.7437 16.522 10.125 16.522C6.50625 16.522 3.5625 13.5582 3.5625 9.91485Z" fill="white"/>
</svg>
