<svg width="45" height="61" viewBox="0 0 45 61" fill="none" xmlns="http://www.w3.org/2000/svg">
<path fill-rule="evenodd" clip-rule="evenodd" d="M8.92255 6.34539C8.92255 3.33871 11.376 0.885254 14.3827 0.885254C17.3894 0.885254 19.8428 3.33871 19.8428 6.34539V17.679C20.6637 17.1845 21.6239 16.8996 22.6484 16.8996C25.0804 16.8996 27.1504 18.5048 27.8529 20.7096C28.727 20.1147 29.7813 19.7664 30.9141 19.7664C33.2066 19.7664 35.1775 21.1927 35.9844 23.203C36.8839 22.5508 37.9884 22.1655 39.1799 22.1655C42.1865 22.1655 44.64 24.619 44.64 27.6257V48.6436C44.64 49.4612 44.4552 50.2425 44.1314 50.9382L42.2909 55.0214L42.2904 55.0225C40.9164 58.0633 37.8926 60.0198 34.5527 60.0198H19.2176C18.8546 60.0523 18.488 60.05 18.1254 60.0128C18.122 60.0125 18.1186 60.0121 18.1152 60.0118C16.6672 59.852 15.279 59.1206 14.3332 57.8629C14.2983 57.8165 14.2665 57.7678 14.238 57.7172L1.39241 34.9409C-0.349315 32.5386 0.16462 29.1549 2.54057 27.3704C2.56044 27.3555 2.58072 27.3411 2.6014 27.3273C4.53168 26.0405 7.05446 26.114 8.92255 27.3339V6.34539ZM8.20736 30.2436C7.26841 28.9951 5.41049 28.6699 4.10503 29.5156C2.89658 30.4485 2.65493 32.2029 3.57007 33.4214C3.6048 33.4676 3.63646 33.5161 3.66487 33.5665L16.5032 56.3299C16.9843 56.9341 17.6712 57.2909 18.4018 57.3727C18.6065 57.3933 18.8142 57.3931 19.0189 57.3721C19.0639 57.3675 19.1091 57.3652 19.1543 57.3652H34.5527C36.8471 57.3652 38.9254 56.0219 39.8709 53.9306L39.8714 53.9294M39.8714 53.9294L41.7149 49.8395C41.716 49.837 41.7172 49.8344 41.7183 49.8319C41.7198 49.8288 41.7212 49.8258 41.7226 49.8227C41.8905 49.4637 41.9855 49.062 41.9855 48.6436V27.6257C41.9855 26.085 40.7205 24.8201 39.1799 24.8201C37.6393 24.8201 36.3743 26.085 36.3743 27.6257C36.3743 28.3587 35.78 28.9529 35.047 28.9529C34.314 28.9529 33.7197 28.3587 33.7197 27.6257V25.2265C33.7197 23.6859 32.4548 22.4209 30.9141 22.4209C29.3735 22.4209 28.1086 23.6859 28.1086 25.2265C28.1086 25.9596 27.5143 26.5538 26.7813 26.5538C26.0482 26.5538 25.454 25.9596 25.454 25.2265V22.3598C25.454 20.8192 24.189 19.5542 22.6484 19.5542C21.1078 19.5542 19.8428 20.8192 19.8428 22.3598C19.8428 23.0928 19.2486 23.687 18.5156 23.687C17.7825 23.687 17.1883 23.0928 17.1883 22.3598V6.34539C17.1883 4.80478 15.9233 3.5398 14.3827 3.5398C12.8421 3.5398 11.5771 4.80478 11.5771 6.34539V30.7548C11.5771 31.3261 11.2115 31.8333 10.6695 32.0139C10.1276 32.1946 9.53078 32.0082 9.18801 31.5511L8.20787 30.2443C8.2077 30.2441 8.20753 30.2438 8.20736 30.2436" fill="#231F20"/>
</svg>
